<svg width="62" height="57" viewBox="0 0 62 57" fill="none" xmlns="http://www.w3.org/2000/svg">
<path d="M41.955 37.824C42.184 37.5327 43.033 37.7931 42.8656 38.3219C42.3742 39.8586 41.0057 41.6034 39.293 41.4517C35.6132 41.1242 37.2482 32.528 38.1307 30.5269C38.274 30.2022 40.6682 30.2089 40.2611 31.7295C39.9652 32.8676 37.8776 39.8237 39.9023 40.0693C40.8677 40.1874 41.552 38.338 41.955 37.8267V37.824Z" fill="#000E55"/>
<path d="M43.722 39.4186C43.5346 39.8749 44.3956 41.6599 45.4334 41.7981C47.1755 42.0303 48.2588 38.6133 48.9163 37.9315C49.2885 37.5463 49.958 38.1113 49.8616 38.4563C49.2885 40.4882 47.1996 43.3496 44.8067 42.9939C42.0656 42.5873 41.1376 39.2387 41.3131 36.8618C41.5193 34.0555 42.466 28.6884 46.3078 28.6334C47.9709 28.6092 48.6043 30.2412 48.3927 31.6263C47.9187 34.7292 44.3152 37.9745 43.722 39.4172V39.4186ZM43.6109 38.0187C43.7783 38.0818 46.0935 33.6448 46.368 31.1968C46.443 30.5284 46.2421 30.1392 46.0025 30.1822C44.2844 30.4909 43.7876 35.4875 43.6444 37.192C43.6189 37.494 43.6109 38.0187 43.6109 38.0187Z" fill="#000E55"/>
<path d="M32.7434 35.0216C31.8034 37.3099 30.6906 40.9658 29.6234 44.164C28.2441 44.8069 27.6589 44.3707 27.6322 43.6379C27.5853 41.712 27.9656 36.518 28.3325 32.6232L29.2846 32.1011C30.1844 31.6113 30.8981 31.8998 30.8151 32.587C30.5446 34.733 29.8068 38.0641 29.5832 40.7779C30.9624 36.5449 31.8047 34.4834 32.9523 31.9844C33.3285 31.1617 34.4239 30.9255 35.4938 32.0797C34.2096 39.5673 34.9301 41.5415 35.6853 41.5013C36.3803 41.4637 36.8824 41.0114 37.5653 39.0989C37.9577 38.7634 38.6379 38.8922 38.5214 39.3928C38.101 41.1174 36.7552 42.7092 35.1671 42.8541C33.0714 43.0447 32.2198 39.8317 32.7407 35.0242L32.7434 35.0216Z" fill="#000E55"/>
<path d="M20.2462 34.1775C20.0373 33.7346 19.5338 33.5159 19.0691 33.6662C18.5563 33.8313 18.0555 34.0339 17.5721 34.2715C16.3589 34.8781 15.2836 35.7625 14.3757 36.7839C13.5535 37.6965 12.8706 38.7246 12.3484 39.8372C12.2064 40.1418 12.4461 40.4975 12.7715 40.4653C13.0139 40.4425 13.113 40.2318 13.2348 40.0479C13.3875 39.8184 13.5482 39.5943 13.7222 39.3782C14.1347 38.8534 14.5886 38.3622 15.0814 37.9113C15.9879 37.0805 17.0498 36.3719 18.2041 35.9692C17.5828 43.2784 15.913 47.6805 14.6034 47.918C13.275 48.1583 11.0173 45.9988 10.0291 39.7969C8.31645 29.0695 11.3695 23.7399 14.6716 23.1414C16.5691 22.7978 17.8077 25.4229 16.3548 30.7417C16.229 31.1658 16.5222 32.0369 17.9269 31.7819C20.7738 31.2665 22.2106 19.727 15.1524 21.0061C7.93348 22.3146 5.0103 34.0822 6.29313 42.1188C7.43267 49.2574 11.1512 51.2733 12.8224 50.9713C15.0238 50.5714 17.4167 48.6938 19.0263 42.6221C19.8525 40.0237 20.3386 34.7224 20.3386 34.7224C20.3587 34.5359 20.3265 34.348 20.2462 34.1775Z" fill="#000E55"/>
<path d="M28.3269 41.3041H27.6922C27.5194 45.0728 25.0113 44.8688 24.1035 44.6138C23.1956 44.3588 22.4765 43.371 22.6452 42.9683C23.1969 41.6276 26.6396 38.6119 27.0789 35.7277C27.2757 34.4406 26.5941 32.924 25.0488 32.9455C21.4762 32.9965 20.5991 37.9851 20.4063 40.5928C20.247 42.7536 21.0718 45.2405 23.4942 45.7237C23.4942 45.7237 25.8027 46.2592 27.186 44.8795C27.186 44.8795 28.5733 43.6179 28.3282 41.3055L28.3269 41.3041ZM22.5421 41.6692C22.5421 41.6692 22.5501 41.1793 22.5729 40.9002C22.7068 39.3165 23.1688 34.6728 24.7663 34.3869C24.9913 34.3466 25.2671 34.7077 25.1988 35.3291C24.9417 37.6053 22.6974 41.7255 22.5421 41.6692Z" fill="#000E55"/>
<path d="M43.9586 13.8512C42.8565 13.5371 37.7828 12.4836 36.2657 17.8708C34.7485 23.258 39.6388 24.6873 38.7094 28.0171C38.7094 28.0171 38.2635 29.1633 39.4767 29.4907C40.6913 29.8182 40.8975 28.6465 40.8975 28.6465C41.8415 25.3208 46.851 26.7085 48.3882 21.3294C49.9254 15.9502 45.0593 14.1652 43.9586 13.8512ZM44.7339 24.6095L44.5344 24.5504C43.9104 24.3652 43.4069 23.87 43.0989 23.1452C42.6356 23.4593 42.1495 23.6257 41.6849 23.6244C41.4974 23.6244 41.3126 23.5975 41.1332 23.5439C40.5092 23.36 40.0057 22.8634 39.6977 22.1373C39.233 22.4514 38.7483 22.6178 38.2809 22.6178C38.0948 22.6178 37.91 22.5896 37.7319 22.5373L37.5324 22.4782L37.7828 21.6233L37.9823 21.6823C38.0788 21.7105 38.1778 21.724 38.2769 21.7253C38.7255 21.7253 39.1446 21.4636 39.4339 21.2233C39.316 20.5322 39.3455 19.7913 39.5156 19.2183C39.7178 18.5311 40.1115 18.1379 40.5975 18.1379C40.6872 18.1379 40.777 18.1513 40.864 18.1781C41.4559 18.3539 41.6741 18.97 41.4331 19.7873C41.2644 20.3617 40.8854 21.0006 40.4154 21.5132C40.6029 22.1467 40.947 22.5641 41.3836 22.693C41.4813 22.7225 41.5831 22.7372 41.6849 22.7372C42.1308 22.7372 42.5459 22.4742 42.8351 22.2353C42.6356 21.0771 42.8539 19.9041 43.3654 19.4182C43.5354 19.2491 43.7644 19.1525 44.0041 19.1512C44.0925 19.1512 44.1809 19.1646 44.2652 19.1901C44.5853 19.2827 44.829 19.5444 44.8973 19.8718C45.062 20.559 44.6094 21.6622 43.8153 22.5252C43.9412 22.9278 44.217 23.5371 44.7848 23.7049L44.9843 23.764L44.7339 24.6135V24.6095ZM44.1835 20.0356C44.1768 19.9645 44.1273 19.9054 44.0577 19.888C44.0429 19.8839 44.0282 19.8812 44.0135 19.8799H44.0028C43.9519 19.8826 43.905 19.9054 43.8715 19.943C43.6305 20.1711 43.4404 20.8945 43.5113 21.7387C44.0296 21.0703 44.2599 20.359 44.1822 20.0369L44.1835 20.0356ZM40.6565 18.8801C40.6444 18.876 40.6323 18.8747 40.6203 18.8733H40.6096C40.4409 18.8733 40.2962 19.1579 40.2199 19.4222C40.1155 19.7766 40.078 20.2557 40.1155 20.7268C40.3873 20.3818 40.5962 19.9913 40.7288 19.5726C40.7582 19.4692 40.8975 18.9512 40.6565 18.8787V18.8801Z" fill="#00B0EE"/>
<path d="M44.3264 12.1724L44.3384 7.41324C44.3397 6.63079 44.9745 5.99866 45.7538 6C46.5345 6.00134 47.1652 6.6375 47.1638 7.41861C47.1638 7.66556 47.0982 7.90848 46.975 8.12321L44.6009 12.2448C44.5594 12.3146 44.4696 12.3388 44.4 12.2972C44.3545 12.2703 44.3277 12.222 44.3277 12.171L44.3264 12.1724Z" fill="#00B0EE"/>
<path d="M49.6038 16.263L52.9702 12.9091C53.5246 12.3575 54.4191 12.3602 54.9694 12.9145C55.5198 13.4701 55.5171 14.3666 54.9641 14.9182C54.7886 15.0914 54.5717 15.2175 54.3334 15.2819L49.7484 16.5086C49.6707 16.5288 49.5904 16.4831 49.5703 16.4053C49.5556 16.3543 49.5703 16.3006 49.6051 16.263H49.6038Z" fill="#00B0EE"/>
<path d="M49.843 22.7225L54.5913 22.7346C55.372 22.7359 56.0027 23.3721 56 24.1545C55.9987 24.937 55.364 25.5691 54.5833 25.5664C54.3369 25.5664 54.0945 25.5006 53.8816 25.3772L49.768 22.9963C49.6984 22.9547 49.6743 22.8661 49.7145 22.7963C49.7412 22.7507 49.7894 22.7225 49.8417 22.7225H49.843Z" fill="#00B0EE"/>
<path d="M37.7904 12.8635L36.7151 8.22649C36.537 7.46552 35.7778 6.99176 35.0185 7.17026C34.2593 7.34876 33.7866 8.10973 33.9647 8.87071C34.0209 9.1096 34.1374 9.33105 34.3048 9.51089L37.5413 12.995C37.5962 13.0541 37.6886 13.0581 37.7489 13.0031C37.7877 12.9668 37.8038 12.9131 37.7917 12.8621L37.7904 12.8635Z" fill="#00B0EE"/>
<path d="M34.1591 18.205L30.1258 15.6885C29.4643 15.2752 28.5926 15.4765 28.1802 16.1408C27.7677 16.8038 27.9686 17.6775 28.6314 18.0909C28.8417 18.2224 29.0827 18.2962 29.3304 18.3043L34.0747 18.4774C34.1564 18.4801 34.2234 18.4157 34.226 18.3338C34.2274 18.2815 34.2019 18.2318 34.1564 18.2036H34.1591V18.205Z" fill="#00B0EE"/>
</svg>
