<?xml version="1.0" encoding="UTF-8"?><svg id="Layer_1" xmlns="http://www.w3.org/2000/svg" viewBox="0 0 979 979"><g id="Layer_2"><g id="Layer_3"><path d="M664.3,638c3.7-4.6,17.2-.5,14.5,7.9-7.8,24.5-29.7,52.2-57,49.8-58.7-5.2-32.6-142.1-18.5-173.9,2.3-5.2,40.5-5.1,34,19.1-4.7,18.1-38,128.9-5.7,132.8,15.3,1.9,26.2-27.6,32.7-35.7Z" style="fill:#303030;"/><path d="M692.4,663.4c-3,7.3,10.8,35.7,27.3,37.9,27.8,3.7,45.1-50.7,55.6-61.6,5.9-6.1,16.6,2.9,15.1,8.3-9.1,32.3-42.5,77.9-80.7,72.2-43.8-6.5-58.5-59.8-55.8-97.6,3.3-44.7,18.4-130.1,79.7-131,26.5-.4,36.7,25.6,33.3,47.7-7.5,49.4-65,101.1-74.5,124.1h0Zm-1.8-22.3c2.7,1,39.6-69.6,44-108.6,1.2-10.6-2-16.8-5.8-16.1-27.4,4.9-35.3,84.5-37.6,111.6-.4,4.7-.6,13.1-.6,13.1h0Z" style="fill:#303030;"/><path d="M517.2,593.3c-15,36.4-32.8,94.6-49.8,145.5-22,10.2-31.3,3.3-31.8-8.4-.7-30.7,5.3-113.4,11.2-175.4l15.2-8.3c14.4-7.8,25.7-3.2,24.4,7.7-4.3,34.2-16.1,87.2-19.6,130.4,22-67.4,35.4-100.2,53.8-140,6-13.1,23.5-16.9,40.6,1.5-20.5,119.2-9,150.7,3.1,150,11.1-.6,19.1-7.8,30-38.2,6.3-5.3,17.1-3.3,15.3,4.7-6.7,27.5-28.2,52.8-53.5,55.1-33.6,3.2-47.2-48-38.9-124.6h0Z" style="fill:#303030;"/><path d="M317.8,579.9c-3.3-7-11.4-10.5-18.8-8.1-8.2,2.6-16.2,5.9-23.9,9.6-19.4,9.6-36.5,23.7-51,40-13.1,14.5-24,30.9-32.4,48.6-2.3,4.8,1.6,10.5,6.8,10,3.9-.4,5.4-3.7,7.4-6.7,2.4-3.7,5-7.2,7.8-10.7,6.6-8.4,13.8-16.2,21.7-23.4,14.5-13.2,31.4-24.5,49.8-30.9-9.9,116.4-36.6,186.5-57.5,190.2-21.2,3.8-57.2-30.5-73-129.3-27.3-170.8,21.4-255.6,74.1-265.2,30.3-5.5,50.1,36.3,26.9,121-2,6.8,2.7,20.6,25.1,16.5,45.4-8.2,68.4-191.9-44.3-171.6-115.1,21.1-161.8,208.5-141.3,336.4,18.2,113.7,77.5,145.7,104.2,141,35.1-6.4,73.3-36.3,99-132.9,13.2-41.4,20.9-125.8,20.9-125.8h0c.3-3-.2-6-1.5-8.7h0Z" style="fill:#303030;"/><path d="M446.9,693.4h-10.1c-2.8,60-42.8,56.8-57.3,52.7s-26-19.8-23.3-26.2c8.8-21.3,63.7-69.4,70.8-115.3,3.1-20.5-7.7-44.6-32.4-44.3-57,.8-71,80.2-74.1,121.8-2.5,34.4,10.6,74,49.3,81.7,0,0,36.8,8.5,58.9-13.5-.1,0,22.1-20.1,18.2-56.9Zm-92.4,5.8s.1-7.8,.5-12.2c2.1-25.2,9.5-99.1,35-103.7,3.6-.6,8,5.1,6.9,15-4.1,36.2-39.9,101.8-42.4,100.9Z" style="fill:#303030;"/><path d="M696.1,256.3c-17.6-5-98.5-21.8-122.8,64-24.3,85.8,53.8,108.5,39,161.5,0,0-7.1,18.2,12.2,23.5s22.7-13.4,22.7-13.4c15.1-53,95-30.9,119.5-116.5s-53-114.1-70.6-119.1h0Zm12.4,171.3l-3.2-.9c-10-3-18-10.8-22.9-22.4-7.4,5-15.1,7.6-22.6,7.6-3,0-6-.4-8.8-1.3-10-2.9-18-10.8-22.9-22.4-7.4,5-15.2,7.6-22.6,7.6-3,0-5.9-.4-8.8-1.3l-3.2-.9,4-13.6,3.2,.9c1.5,.4,3.1,.7,4.7,.7,7.2,0,13.8-4.2,18.5-8-1.9-11-1.4-22.8,1.3-31.9,3.2-10.9,9.5-17.2,17.3-17.2,1.4,0,2.9,.2,4.2,.6,9.5,2.8,12.9,12.6,9.1,25.6-2.7,9.1-8.7,19.3-16.2,27.5,3,10.1,8.5,16.7,15.5,18.8,1.6,.5,3.2,.7,4.8,.7,7.1,0,13.7-4.2,18.4-8-3.2-18.4,.3-37.1,8.5-44.9,2.7-2.7,6.4-4.2,10.2-4.2,1.4,0,2.8,.2,4.2,.6,5.1,1.5,9,5.6,10.1,10.9,2.6,10.9-4.6,28.5-17.3,42.2,2,6.4,6.4,16.1,15.5,18.8l3.2,.9-4.2,13.6h0Zm-8.8-72.8c-.1-1.1-.9-2.1-2-2.4-.2-.1-.5-.1-.7-.1h-.2c-.8,0-1.6,.4-2.1,1-3.8,3.6-6.9,15.1-5.7,28.6,8.3-10.7,12-22,10.7-27.1h0Zm-56.3-18.4c-.2-.1-.4-.1-.6-.1h-.2c-2.7,0-5,4.5-6.2,8.8-1.7,5.6-2.3,13.3-1.7,20.8,4.3-5.5,7.7-11.7,9.8-18.4,.6-1.7,2.8-10-1.1-11.1h0Z" style="fill:#08bdfd;"/><path d="M702,229.6l.2-75.8c.1-12.5,10.2-22.5,22.6-22.5s22.5,10.1,22.5,22.6c0,3.9-1,7.8-3,11.2l-37.9,65.6c-.7,1.1-2.1,1.5-3.2,.8-.7-.3-1.1-1.1-1.2-1.9h0Z" style="fill:#08bdfd;"/><path d="M786.2,294.7l53.7-53.4c8.8-8.8,23.1-8.7,31.9,.1,8.8,8.8,8.7,23.1-.1,31.9h0c-2.8,2.8-6.3,4.8-10.1,5.8l-73.1,19.5c-1.2,.3-2.5-.4-2.8-1.6-.3-.8-.1-1.7,.5-2.3h0Z" style="fill:#08bdfd;"/><path d="M790.2,397.5l75.8,.2c12.4,0,22.5,10.1,22.5,22.6s-10.1,22.5-22.6,22.5c-3.9,0-7.8-1-11.2-3l-65.7-37.9c-1.1-.7-1.5-2.1-.8-3.2,.4-.7,1.1-1.2,2-1.2Z" style="fill:#08bdfd;"/><path d="M597.8,240.6l-17.1-73.8c-2.8-12.1-15-19.7-27.1-16.8-12.1,2.8-19.7,15-16.8,27.1,.9,3.8,2.8,7.3,5.4,10.2l51.6,55.5c.9,.9,2.4,1,3.3,.1,.7-.7,.9-1.5,.7-2.3h0Z" style="fill:#08bdfd;"/><path d="M539.9,325.6l-64.4-40.1c-10.6-6.6-24.5-3.4-31.1,7.2s-3.4,24.5,7.2,31.1c3.4,2.1,7.2,3.3,11.2,3.4l75.7,2.8c1.3,0,2.4-1,2.4-2.3,0-.9-.4-1.6-1-2.1h0Z" style="fill:#08bdfd;"/></g></g></svg>