<?xml version="1.0" encoding="utf-8"?>
<!-- Generator: Adobe Illustrator 25.3.1, SVG Export Plug-In . SVG Version: 6.00 Build 0)  -->
<svg version="1.1" id="Layer_1" xmlns="http://www.w3.org/2000/svg" xmlns:xlink="http://www.w3.org/1999/xlink" x="0px" y="0px"
	 viewBox="0 0 938.6 921.1" style="enable-background:new 0 0 938.6 921.1;" xml:space="preserve">
<style type="text/css">
	.st0{clip-path:url(#SVGID_2_);}
	.st1{fill:#303030;fill-opacity:0.9;}
	.st2{fill:#AFAFAF;}
	.st3{fill:#E96A40;}
	.st4{fill:#08BDFD;}
	.st5{fill:#FFC300;}
</style>
<g>
	<defs>
		<rect id="SVGID_1_" x="25.6" y="52.8" width="887.3" height="815.4"/>
	</defs>
	<clipPath id="SVGID_2_">
		<use xlink:href="#SVGID_1_"  style="overflow:visible;"/>
	</clipPath>
	<g class="st0">
		<path class="st1" d="M86.9,818.5c-24.7,0-42.7-5.4-61.3-18l17.6-32.8c8.3,10.3,24.1,17.7,38.2,17.7c10.3,0,20.6-3.8,20.6-15.4
			c0-11.3-8.3-16.7-26-24.5c-21.2-9.4-43.7-18.6-43.7-48.9c0-33.5,29.5-47.9,62.3-47.9c18.3,0,36,3.8,49.5,14.5l-16.8,29.3
			c-6.7-8-19.2-13.5-29.6-13.5c-11.2,0-21.5,4.2-21.5,14.7c0,12.3,19.6,17.7,28.2,21.6c21.5,9.6,44.3,22.5,44.3,49.2
			C148.9,800.9,120.7,818.5,86.9,818.5z"/>
		<path class="st1" d="M224.3,818.5c-20.5,0-48.8-8-48.8-39.2v-94.9H156V660c22.5-6.4,33.4-24.1,39.2-45.7h24.7v39h35.3v30.5h-35.3
			v76.9c0,14.8,3.2,25.1,20.2,25.1c8,0,18-3.6,20.9-5.1v29.9C252.3,814.7,238.2,818.5,224.3,818.5z"/>
		<path class="st1" d="M304.6,635.5c-12.2,0-22.2-10.3-22.2-22.5c0-12.3,10-22.5,22.2-22.5c12.2,0,22.5,10.3,22.5,22.5
			C327.1,625.3,316.8,635.5,304.6,635.5z M282.5,814.1V653.3h44.3v160.8H282.5z"/>
		<path class="st1" d="M436.7,818.5c-15.1,0-27.3-4.5-35.6-16v65.6h-44.3V653.3h41.7l2.6,13.8c9.9-11.2,22.5-17.4,37.9-17.4
			c45.3,0,60.7,44.1,60.7,84C499.6,773.6,483.6,818.5,436.7,818.5z M424.5,682.9c-16,0-23.4,11.6-23.4,26.4v47.9
			c0,16.8,6.4,26.4,24.1,26.4c25.4,0,27.3-31.8,27.3-50.5C452.4,713.7,449.8,682.9,424.5,682.9z"/>
		<path class="st1" d="M602.4,818.6c-15.1,0-27.3-4.5-35.7-16.1v65.6l-44.3,0V653.3h41.7l2.5,13.8c10-11.2,22.5-17.4,37.9-17.4
			c45.3,0,60.7,44.1,60.7,84C665.3,773.6,649.3,818.6,602.4,818.6z M590.2,682.9c-16.1,0-23.5,11.6-23.5,26.4v47.9
			c0,16.8,6.4,26.4,24.1,26.4c25.4,0,27.3-31.8,27.3-50.5C618.1,713.8,615.5,682.9,590.2,682.9z"/>
		<path class="st1" d="M730.6,816.6c-27.9,0-41.4-15.1-41.4-42.7V587.1h44.3v178.5c0,10.6,3.5,19.3,16.4,19.3c3.2,0,7-1,9.6-2.2
			v29.5C751.7,815.7,738.9,816.6,730.6,816.6z"/>
		<path class="st1" d="M912.3,747.2H812.1c0,23.5,12.5,38.2,36.6,38.2c16.4,0,27.6-4.5,39.8-17.7l20.2,25.4
			c-19.3,19.6-41.1,26-68.1,26c-48.2,0-75.5-40.2-75.5-85.6c0-49.8,27.3-84.2,79-84.2c46.9,0,68.7,39.6,68.7,85.2
			C912.9,738.9,912.9,743,912.3,747.2z M842.3,681.3c-23.8,0-29.9,19.3-30.5,38.6h55.5C867.3,702.8,863.2,681.3,842.3,681.3z"/>
		<path class="st2" d="M656.2,443.7H307.8v-32.9h291.6L453.6,157.9l28.4-16.4L656.2,443.7z"/>
		<path class="st3" d="M564.6,149.7c0,53.5-43.3,97-96.8,97c-53.4,0-96.8-43.4-96.8-97c0-53.4,43.3-96.9,96.8-96.9
			C521.2,52.8,564.6,96.3,564.6,149.7z"/>
		<path class="st4" d="M724.6,427.2c0,53.5-43.4,97-96.8,97c-53.4,0-96.8-43.4-96.8-97c0-53.4,43.3-96.9,96.8-96.9
			C681.2,330.3,724.6,373.7,724.6,427.2z"/>
		<path class="st5" d="M404.5,427.2c0,53.5-43.3,97-96.8,97c-53.4,0-96.8-43.4-96.8-97c0-53.4,43.4-96.9,96.8-96.9
			C361.2,330.4,404.5,373.8,404.5,427.2z"/>
	</g>
</g>
</svg>
